HIERARCHY
ROOT joint_Root
{
	OFFSET 0.0 0.0 0.0
	CHANNELS 6 Xposition Yposition Zposition Zrotation Xrotation Yrotation 
	JOINT Hips
	{
		OFFSET -17.1583 93.1646 452.98
		CHANNELS 6 Xposition Yposition Zposition Zrotation Xrotation Yrotation 
		JOINT Spine
		{
			OFFSET 15.7357 0.0 0.0
			CHANNELS 6 Xposition Yposition Zposition Zrotation Xrotation Yrotation 
			JOINT Chest
			{
				OFFSET 8.98455 -0.406207 0.0
				CHANNELS 6 Xposition Yposition Zposition Zrotation Xrotation Yrotation 
				JOINT Neck
				{
					OFFSET 16.3773 0.0 0.0
					CHANNELS 6 Xposition Yposition Zposition Zrotation Xrotation Yrotation 
					JOINT Head
					{
						OFFSET 6.45672 0.0 0.0
						CHANNELS 6 Xposition Yposition Zposition Zrotation Xrotation Yrotation 
						End Site
						{
							OFFSET 0.0 0.0 0.0
						}
					}
				}
				JOINT Shoulder_L
				{
					OFFSET 12.9942 -0.242716 4.98039
					CHANNELS 6 Xposition Yposition Zposition Zrotation Xrotation Yrotation 
					JOINT UpperArm_L
					{
						OFFSET 5.34809 0.0 0.0
						CHANNELS 6 Xposition Yposition Zposition Zrotation Xrotation Yrotation 
						JOINT LowerArm_L
						{
							OFFSET 24.3286 1.87007e-05 0.0
							CHANNELS 6 Xposition Yposition Zposition Zrotation Xrotation Yrotation 
							JOINT Hand_L
							{
								OFFSET 22.2916 0.0 0.0
								CHANNELS 6 Xposition Yposition Zposition Zrotation Xrotation Yrotation 
								End Site
								{
									OFFSET 0.0 0.0 0.0
								}
							}
						}
					}
				}
				JOINT Shoulder_R
				{
					OFFSET 12.9945 -0.242716 -4.98039
					CHANNELS 6 Xposition Yposition Zposition Zrotation Xrotation Yrotation 
					JOINT UpperArm_R
					{
						OFFSET -5.34813 0.0 0.0
						CHANNELS 6 Xposition Yposition Zposition Zrotation Xrotation Yrotation 
						JOINT LowerArm_R
						{
							OFFSET -24.3289 0.000322201 0.0
							CHANNELS 6 Xposition Yposition Zposition Zrotation Xrotation Yrotation 
							JOINT Hand_R
							{
								OFFSET -22.2915 -0.000108084 0.0
								CHANNELS 6 Xposition Yposition Zposition Zrotation Xrotation Yrotation 
								End Site
								{
									OFFSET 0.0 0.0 0.0
								}
							}
						}
					}
				}
			}
		}
		JOINT UpperLeg_L
		{
			OFFSET -2.19248 -6.46944 0.0
			CHANNELS 6 Xposition Yposition Zposition Zrotation Xrotation Yrotation 
			JOINT LowerLeg_L
			{
				OFFSET 39.0811 0.0 -1.23785e-05
				CHANNELS 6 Xposition Yposition Zposition Zrotation Xrotation Yrotation 
				JOINT Foot_L
				{
					OFFSET 40.9854 0.0 -1.26872e-05
					CHANNELS 6 Xposition Yposition Zposition Zrotation Xrotation Yrotation 
					JOINT Toes_L
					{
						OFFSET 11.7543 0.0 0.0
						CHANNELS 6 Xposition Yposition Zposition Zrotation Xrotation Yrotation 
						End Site
						{
							OFFSET 0.0 0.0 0.0
						}
					}
				}
			}
		}
		JOINT UpperLeg_R
		{
			OFFSET -2.19251 6.46944 0.0
			CHANNELS 6 Xposition Yposition Zposition Zrotation Xrotation Yrotation 
			JOINT LowerLeg_R
			{
				OFFSET -39.0811 -0.00228153 -0.0401928
				CHANNELS 6 Xposition Yposition Zposition Zrotation Xrotation Yrotation 
				JOINT Foot_R
				{
					OFFSET -40.9854 0.0 0.0
					CHANNELS 6 Xposition Yposition Zposition Zrotation Xrotation Yrotation 
					JOINT Toes_R
					{
						OFFSET -11.7543 0.0 0.0
						CHANNELS 6 Xposition Yposition Zposition Zrotation Xrotation Yrotation 
						End Site
						{
							OFFSET 0.0 0.0 0.0
						}
					}
				}
			}
		}
	}
}
MOTION
Frames:	9
Frame Time:	0.0333333
0.000000 0.000000 0.000000 0.000000 0.000000 -0.000000 -1.080670 93.576100 -4.054200 87.918700 0.806880 -0.865097 15.735700 0.000005 -0.000001 88.708000 87.873100 -87.261300 8.984550 -0.406207 -0.000000 -3.508760 -0.238126 2.886830 16.377300 -0.000001 -0.000001 -2.426210 1.421620 -1.534150 6.456720 -0.000001 -0.000000 -0.582353 0.508094 -2.550930 12.994200 -0.242716 4.980390 -92.645100 8.343320 -72.339800 5.348090 -0.000007 -0.000001 -72.587000 21.717700 -4.060980 24.328600 0.000019 0.000005 6.147740 25.043300 -14.278700 22.291600 -0.000001 0.000005 -10.749600 5.057570 6.046840 12.994500 -0.242716 -4.980390 88.871200 4.379710 -75.532100 -5.348130 -0.000001 -0.000004 -70.863900 28.059000 -5.366670 -24.328900 0.000322 -0.000009 0.534903 3.531610 -8.644270 -22.291500 -0.000108 -0.000004 -8.695220 5.229820 1.960980 -2.192480 -6.469440 -0.000000 -173.302000 -6.638790 -5.259580 39.081100 -0.000007 -0.000012 0.011389 -0.044289 14.422200 40.985400 -0.000006 -0.000013 -1.861500 13.166800 -66.522400 11.754300 -0.000000 0.000003 -0.000537 0.176226 -9.428670 -2.192510 6.469440 -0.000001 178.741000 8.134980 176.840000 -39.081100 -0.002282 -0.040193 0.025204 -0.111705 11.076000 -40.985400 0.000008 0.000006 -4.950390 4.083320 -65.187700 -11.754300 -0.000006 -0.000006 -0.009418 0.266902 -5.731040
0.000000 0.000000 0.000000 0.000000 0.000000 -0.000000 -1.041590 93.593400 -3.939630 87.938000 0.926809 -1.313310 15.735700 0.000005 -0.000001 88.171300 88.035400 -86.753900 8.984550 -0.406207 -0.000000 -3.833950 -0.268721 2.827020 16.377300 -0.000001 -0.000001 -3.448970 1.336670 -1.370930 6.456720 -0.000001 -0.000000 -1.417230 0.588412 -2.828550 12.994200 -0.242716 4.980390 -92.616100 8.303060 -72.442800 5.348090 -0.000007 -0.000001 -70.456800 20.009400 -7.156930 24.328600 0.000019 0.000005 5.665560 28.915100 -11.596400 22.291600 -0.000001 0.000005 -14.547400 5.146190 4.021830 12.994500 -0.242716 -4.980390 88.962700 4.005620 -75.469400 -5.348130 -0.000001 -0.000004 -68.859300 26.653300 -8.159300 -24.328900 0.000322 -0.000009 0.717114 6.507020 -6.319640 -22.291500 -0.000108 -0.000004 -10.489000 5.213220 2.388460 -2.192480 -6.469440 -0.000000 -173.392000 -6.536330 -5.529150 39.081100 -0.000007 -0.000012 0.012932 -0.051121 14.196400 40.985400 -0.000006 -0.000013 -1.857960 13.125200 -66.566400 11.754300 -0.000000 0.000003 -0.000372 0.173664 -9.532740 -2.192510 6.469440 -0.000001 178.717000 8.392070 176.637000 -39.081100 -0.002282 -0.040193 0.023754 -0.107400 10.763500 -40.985400 0.000008 0.000006 -5.138120 4.270000 -65.115000 -11.754300 -0.000006 -0.000006 -0.009329 0.266219 -5.758940
0.000000 0.000000 0.000000 0.000000 0.000000 -0.000000 -0.984665 93.604900 -3.721200 87.976100 1.030950 -1.666580 15.735700 0.000005 -0.000001 88.014400 88.256000 -86.661500 8.984550 -0.406207 -0.000000 -4.275550 -0.262847 2.697490 16.377300 -0.000001 -0.000001 -4.416900 1.252550 -1.221000 6.456720 -0.000001 -0.000000 -2.061750 0.681173 -2.931290 12.994200 -0.242716 4.980390 -92.452900 7.836230 -72.557700 5.348090 -0.000007 -0.000001 -67.830500 16.586300 -10.776100 24.328600 0.000019 0.000005 4.495310 31.454800 -8.568600 22.291600 -0.000001 0.000005 -17.152800 5.197910 2.769590 12.994500 -0.242716 -4.980390 89.117800 3.369350 -75.318100 -5.348130 -0.000001 -0.000004 -66.279600 23.980500 -11.087300 -24.328900 0.000322 -0.000009 0.755529 9.431540 -4.609830 -22.291500 -0.000108 -0.000004 -12.512000 5.186440 3.060470 -2.192480 -6.469440 -0.000000 -173.481000 -6.689640 -5.625700 39.081100 -0.000007 -0.000012 0.013673 -0.054991 13.963000 40.985400 -0.000006 -0.000013 -1.813270 13.323900 -66.689900 11.754300 -0.000000 0.000003 -0.000502 0.175691 -9.450410 -2.192510 6.469440 -0.000001 178.635000 8.495170 176.585000 -39.081100 -0.002282 -0.040193 0.021831 -0.099973 10.480200 -40.985400 0.000008 0.000006 -5.512420 4.330760 -65.061300 -11.754300 -0.000006 -0.000006 -0.008954 0.263316 -5.877620
0.000000 0.000000 0.000000 0.000000 0.000000 -0.000000 -0.904233 93.587300 -3.381060 88.025600 1.166660 -1.796190 15.735700 0.000005 -0.000001 88.022600 88.490200 -86.752000 8.984550 -0.406207 -0.000000 -4.744250 -0.242728 2.533130 16.377300 -0.000001 -0.000001 -5.242510 1.131750 -1.120880 6.456720 -0.000001 -0.000000 -2.663070 0.670332 -2.933140 12.994200 -0.242716 4.980390 -92.286300 7.268380 -72.486200 5.348090 -0.000007 -0.000001 -64.497600 11.236400 -14.831800 24.328600 0.000019 0.000005 3.449200 33.425700 -6.244690 22.291600 -0.000001 0.000005 -18.213700 5.189020 2.994130 12.994500 -0.242716 -4.980390 89.292100 2.651880 -75.046600 -5.348130 -0.000001 -0.000004 -62.725900 20.475300 -14.198800 -24.328900 0.000322 -0.000009 0.623851 10.918100 -3.296260 -22.291500 -0.000108 -0.000004 -13.790400 5.178690 3.248000 -2.192480 -6.469440 -0.000000 -173.567000 -6.818590 -5.529590 39.081100 -0.000007 -0.000012 0.014310 -0.057621 13.947300 40.985400 -0.000006 -0.000013 -1.701570 13.571400 -66.894400 11.754300 -0.000000 0.000003 -0.000510 0.175816 -9.445340 -2.192510 6.469440 -0.000001 178.510000 8.741860 176.752000 -39.081100 -0.002282 -0.040193 0.021202 -0.097327 10.400600 -40.985400 0.000008 0.000006 -5.594570 4.438190 -65.205500 -11.754300 -0.000006 -0.000006 -0.008795 0.262070 -5.928520
0.000000 0.000000 0.000000 0.000000 0.000000 -0.000000 -0.808822 93.551200 -2.886510 88.088900 1.340380 -1.856990 15.735700 0.000005 -0.000001 87.250900 88.792900 -86.065800 8.984550 -0.406207 -0.000000 -5.350960 -0.251225 2.360790 16.377300 -0.000001 -0.000001 -5.842110 1.014200 -1.059050 6.456720 -0.000001 -0.000000 -3.206530 0.654784 -2.922320 12.994200 -0.242716 4.980390 -92.090100 6.641320 -72.486600 5.348090 -0.000007 -0.000001 -60.312900 5.427910 -18.962000 24.328600 0.000019 0.000005 3.033040 34.475500 -5.347510 22.291600 -0.000001 0.000005 -17.807400 5.170090 3.457900 12.994500 -0.242716 -4.980390 89.474600 1.919940 -74.692700 -5.348130 -0.000001 -0.000004 -58.272300 15.841900 -17.453100 -24.328900 0.000322 -0.000009 0.431297 11.370000 -2.192080 -22.291500 -0.000108 -0.000004 -13.913700 5.191010 2.944170 -2.192480 -6.469440 -0.000000 -173.652000 -6.846220 -5.295150 39.081100 -0.000007 -0.000012 0.015018 -0.060304 13.984700 40.985400 -0.000006 -0.000013 -1.569970 13.758700 -67.159300 11.754300 -0.000000 0.000003 -0.000464 0.175095 -9.474620 -2.192510 6.469440 -0.000001 178.327000 9.160720 177.055000 -39.081100 -0.002282 -0.040193 0.020961 -0.095639 10.440500 -40.985400 0.000008 0.000006 -5.684020 4.729960 -65.569400 -11.754300 -0.000006 -0.000006 -0.009361 0.266469 -5.748750
0.000000 0.000000 0.000000 0.000000 0.000000 -0.000000 -0.698310 93.474800 -2.192610 88.148500 1.470980 -1.618030 15.735700 0.000005 -0.000001 85.477400 89.049300 -84.384500 8.984550 -0.406207 -0.000000 -5.866900 -0.279652 2.173960 16.377300 -0.000001 -0.000001 -6.424010 0.954993 -1.003760 6.456720 -0.000001 -0.000000 -3.602480 0.678243 -2.886820 12.994200 -0.242716 4.980390 -91.879300 5.951190 -72.438900 5.348090 -0.000007 -0.000001 -55.067300 0.063428 -23.205900 24.328600 0.000019 0.000005 3.016690 34.028000 -5.379930 22.291600 -0.000001 0.000005 -16.904900 5.175550 3.325010 12.994500 -0.242716 -4.980390 89.659600 1.217340 -74.376300 -5.348130 -0.000001 -0.000004 -53.115000 10.424000 -20.717900 -24.328900 0.000322 -0.000009 0.319973 11.455700 -1.615860 -22.291500 -0.000108 -0.000004 -12.994000 5.196040 2.820230 -2.192480 -6.469440 -0.000000 -173.686000 -7.040400 -4.750500 39.081100 -0.000007 -0.000012 0.014238 -0.055908 14.288500 40.985400 -0.000006 -0.000013 -1.361570 14.066500 -67.622700 11.754300 -0.000000 0.000003 -0.000843 0.180778 -9.243730 -2.192510 6.469440 -0.000001 178.081000 9.565190 177.686000 -39.081100 -0.002282 -0.040193 0.021278 -0.094971 10.697400 -40.985400 0.000008 0.000006 -5.596810 5.006470 -66.102500 -11.754300 -0.000006 -0.000006 -0.009861 0.270263 -5.593590
0.000000 0.000000 0.000000 0.000000 0.000000 -0.000000 -0.532360 93.372900 -1.303980 88.271000 1.536660 -1.212590 15.735700 0.000005 -0.000001 81.696300 89.314000 -80.707700 8.984550 -0.406207 -0.000000 -6.404890 -0.319981 1.962240 16.377300 -0.000001 -0.000001 -6.843560 0.907322 -0.991814 6.456720 -0.000001 -0.000000 -3.802300 0.697229 -2.781810 12.994200 -0.242716 4.980390 -91.595800 5.022370 -72.347700 5.348090 -0.000007 -0.000001 -49.704300 -5.780040 -27.452800 24.328600 0.000019 0.000005 2.955510 32.988600 -5.416710 22.291600 -0.000001 0.000005 -15.271400 5.165360 3.571600 12.994500 -0.242716 -4.980390 89.887900 0.391443 -74.012600 -5.348130 -0.000001 -0.000004 -47.744500 4.185200 -24.186000 -24.328900 0.000322 -0.000009 0.171330 11.273100 -0.881452 -22.291500 -0.000108 -0.000004 -11.655400 5.206420 2.557920 -2.192480 -6.469440 -0.000000 -173.774000 -7.219680 -3.874630 39.081100 -0.000007 -0.000012 0.012303 -0.047519 14.515800 40.985400 -0.000006 -0.000013 -1.110450 14.317700 -67.954800 11.754300 -0.000000 0.000003 -0.001235 0.186326 -9.018250 -2.192510 6.469440 -0.000001 177.659000 10.106800 178.592000 -39.081100 -0.002282 -0.040193 0.021254 -0.092014 11.018700 -40.985400 0.000008 0.000006 -5.539320 5.547280 -66.710300 -11.754300 -0.000006 -0.000006 -0.010608 0.275794 -5.367350
0.000000 0.000000 0.000000 0.000000 0.000000 -0.000000 -0.329406 93.252100 -0.220483 88.416800 1.603700 -0.543399 15.735700 0.000005 -0.000001 73.295700 89.565600 -72.413200 8.984550 -0.406207 -0.000000 -6.930520 -0.362324 1.746110 16.377300 -0.000001 -0.000001 -7.007850 0.795248 -0.936319 6.456720 -0.000001 -0.000000 -3.645230 0.722290 -2.582990 12.994200 -0.242716 4.980390 -91.317900 4.087820 -72.113100 5.348090 -0.000007 -0.000001 -44.047700 -11.449700 -31.788300 24.328600 0.000019 0.000005 2.693200 31.973500 -5.076350 22.291600 -0.000001 0.000005 -13.126600 5.129290 4.425370 12.994500 -0.242716 -4.980390 90.181500 -0.614703 -73.558100 -5.348130 -0.000001 -0.000004 -42.583400 -2.602140 -27.533300 -24.328900 0.000322 -0.000009 0.086321 10.911200 -0.461148 -22.291500 -0.000108 -0.000004 -10.195900 5.201580 2.679230 -2.192480 -6.469440 -0.000000 -173.846000 -7.438440 -2.523870 39.081100 -0.000007 -0.000012 0.007957 -0.030598 14.577800 40.985400 -0.000006 -0.000013 -0.833682 14.569700 -68.146800 11.754300 -0.000000 0.000003 -0.002088 0.197447 -8.566090 -2.192510 6.469440 -0.000001 177.075000 10.540900 179.979000 -39.081100 -0.002282 -0.040193 0.018004 -0.074107 11.195200 -40.985400 0.000008 0.000006 -5.810320 6.020970 -67.213100 -11.754300 -0.000006 -0.000006 -0.011625 0.283069 -5.069550
0.000000 0.000000 0.000000 0.000000 0.000000 -0.000000 -0.108192 93.119600 0.933387 88.603400 1.680980 0.087800 15.735700 0.000005 -0.000001 36.675500 89.816400 -35.920300 8.984550 -0.406207 -0.000000 -7.543800 -0.394540 1.487320 16.377300 -0.000001 -0.000001 -7.015400 0.653190 -0.765139 6.456720 -0.000001 -0.000000 -3.288320 0.720781 -2.434620 12.994200 -0.242716 4.980390 -90.998600 3.021160 -71.699300 5.348090 -0.000007 -0.000001 -39.479200 -18.132200 -36.529500 24.328600 0.000019 0.000005 2.527940 32.705400 -4.671220 22.291600 -0.000001 0.000005 -10.732800 5.065300 5.886620 12.994500 -0.242716 -4.980390 90.510800 -1.667670 -72.971100 -5.348130 -0.000001 -0.000004 -37.652000 -9.558360 -31.001900 -24.328900 0.000322 -0.000009 -0.000995 10.238600 0.000041 -22.291500 -0.000108 -0.000004 -8.600790 5.204610 2.603430 -2.192480 -6.469440 -0.000000 -174.008000 -7.396820 -1.097750 39.081100 -0.000007 -0.000012 0.007982 -0.030707 14.572100 40.985400 -0.000006 -0.000013 -0.557396 14.566200 -68.589500 11.754300 -0.000000 0.000003 -0.002972 0.207912 -8.140310 -2.192510 6.469440 -0.000001 176.445000 10.761100 -178.551000 -39.081100 -0.002282 -0.040193 0.013848 -0.053090 11.198900 -40.985400 0.000008 0.000006 -6.025010 6.207220 -67.629700 -11.754300 -0.000006 -0.000006 -0.012692 0.290423 -4.768290
